<svg version="1.2" xmlns="http://www.w3.org/2000/svg" viewBox="0 0 1024 1024" width="1024" height="1024">
	<style>
		.s0 { fill: #0c1e24 } 
		.s1 { fill: #3daeae } 
		.s2 { fill: #deedf2 } 
	</style>
	<g id="Background">
		<path id="Path 1" class="s0" d="m500 100.62c-1.38 0.27-5.88 1.4-10 2.51-4.13 1.11-11.32 3.94-16 6.28-4.68 2.35-13 6.96-18.5 10.25-5.5 3.29-16.52 9.73-24.5 14.31-7.98 4.58-17.43 10.02-21 12.08-3.57 2.06-9.2 5.21-12.5 7-3.3 1.79-14.77 8.19-25.5 14.22-10.73 6.03-22.65 12.78-26.5 15-3.85 2.22-9.93 5.7-13.5 7.75-3.57 2.04-9.88 5.61-14 7.93-4.13 2.32-14.7 8.29-23.5 13.26-8.8 4.97-18.25 10.25-21 11.74-2.75 1.49-15.8 8.93-29 16.53-13.2 7.61-32.1 18.31-42 23.78-9.9 5.47-20.88 12.26-24.39 15.09-3.52 2.83-8.42 7.85-10.9 11.15-2.48 3.3-5.96 9.15-7.73 13-1.77 3.85-4.07 10.37-5.1 14.5-1.81 7.21-1.88 14.9-1.88 199 0 183.16 0.08 191.78 1.85 198 1.01 3.58 3.49 9.81 5.5 13.85 2.01 4.05 6.04 10.35 8.97 14 2.93 3.66 8.1 9 11.5 11.88 3.4 2.88 11.8 8.17 18.68 11.76 6.88 3.59 16.32 8.61 21 11.16 4.68 2.55 24.03 13.29 43 23.85 18.98 10.57 51.38 28.78 72 40.47 20.63 11.69 51 28.81 67.5 38.03 16.5 9.23 38.77 21.83 49.5 28 10.73 6.17 21.75 12.36 24.5 13.75 2.75 1.39 7.48 3.43 10.5 4.53 4.38 1.59 8.85 2.09 22 2.46 14.62 0.4 17.47 0.21 25-1.72 4.67-1.2 10.52-3.2 13-4.45 2.48-1.25 10.35-5.66 17.5-9.79 7.15-4.14 16.83-9.74 21.5-12.46 4.67-2.72 11.42-6.55 15-8.51 3.58-1.97 20.67-11.56 38-21.31 17.33-9.75 36.67-20.67 43-24.25 6.33-3.59 19.6-11.04 29.5-16.56 9.9-5.52 21.38-11.91 25.5-14.19 4.13-2.28 14.02-7.78 22-12.22 7.98-4.43 17.88-9.97 22-12.3 4.13-2.33 17.63-9.72 30-16.41 12.38-6.7 24.3-13.34 26.5-14.76 2.2-1.42 6.88-5.22 10.4-8.45 3.52-3.22 8.33-8.56 10.68-11.86 2.36-3.3 5.59-8.92 7.19-12.5 1.6-3.58 3.76-9.65 4.82-13.5 1.85-6.78 1.91-12.99 1.91-197 0-177.75-0.11-190.48-1.76-197.5-0.96-4.13-3.02-10.2-4.57-13.5-1.54-3.3-4.62-8.7-6.85-12-2.22-3.3-6.7-8.48-9.95-11.5-3.25-3.02-10.18-8.02-15.39-11.11-5.21-3.09-15.33-8.82-22.48-12.75-7.15-3.93-15.48-8.54-18.5-10.25-3.02-1.71-12.02-6.82-20-11.34-7.98-4.53-17.2-9.72-20.5-11.53-3.3-1.82-12.75-7.13-21-11.81-8.25-4.68-18.83-10.63-23.5-13.21-4.67-2.59-12.33-6.86-17-9.5-4.67-2.63-16.6-9.39-26.5-15.02-9.9-5.63-27.9-15.76-40-22.52-12.1-6.75-27.85-15.65-35-19.76-7.15-4.11-19.08-10.93-26.5-15.17-7.42-4.23-15.08-8.46-17-9.41-1.92-0.94-7.33-2.85-12-4.23-6.3-1.86-11.48-2.61-20-2.88-6.32-0.21-12.63-0.15-14 0.11z"/>
		<path id="Path 2" class="s1" d="m398 390.12c-2.48 0.5-7.6 2.36-11.39 4.14-4.98 2.34-8.61 5.05-13.05 9.74-4.17 4.4-6.94 8.44-8.56 12.5-1.84 4.61-2.49 8.42-2.79 16.5-0.38 9.96-0.23 10.94 2.89 19 2.78 7.17 4.32 9.53 9.84 15.11 3.61 3.64 8.47 7.58 10.81 8.75 2.34 1.18 6.84 2.82 10 3.65 3.16 0.82 8.45 1.5 11.75 1.5 3.3 0 8.59-0.68 11.75-1.5 3.16-0.83 7.89-2.58 10.5-3.88 2.61-1.31 7.23-4.61 10.25-7.34 3.49-3.16 6.96-7.68 9.5-12.38l4-7.41c0-24.35-0.16-25.34-3.05-31.5-1.68-3.57-4.38-8.24-6-10.38-1.62-2.13-5.19-5.5-7.92-7.5-2.73-1.99-6.78-4.44-9-5.44-2.22-1-6.73-2.45-10.03-3.23-3.3-0.78-8.02-1.38-10.5-1.33-2.48 0.06-6.52 0.51-9 1zm207 1.23c-2.48 0.7-6.75 2.34-9.5 3.65-2.79 1.32-8.13 5.48-12.09 9.43-5.36 5.34-7.68 8.54-9.45 13.07-1.97 5.02-2.36 7.88-2.41 17.5-0.05 10.82 0.13 11.88 3.03 18 1.74 3.67 5.65 9.26 9 12.85 4.36 4.67 7.9 7.31 13.42 9.98 6.26 3.03 8.83 3.69 15.5 4.02 4.4 0.22 10.36-0.11 13.25-0.73 2.89-0.61 7.84-2.34 11-3.83 3.19-1.5 8.23-5.18 11.32-8.25 3.46-3.44 6.86-8.19 8.97-12.54 2.86-5.89 3.47-8.35 3.8-15.5 0.22-4.68-0.15-10.98-0.82-14-0.68-3.02-2.64-8.16-4.37-11.41-1.94-3.64-5.64-8.16-9.65-11.78-4.26-3.85-8.74-6.78-13-8.5-4.83-1.94-8.69-2.7-15-2.93-4.89-0.18-10.41 0.23-13 0.97zm-379.5 136.57c-2.75 0.44-7.47 1.94-10.5 3.35-3.03 1.4-8.15 4.95-11.39 7.89-3.24 2.94-7.11 7.14-8.6 9.34-1.5 2.2-3.57 6.48-4.6 9.5-1.39 4.05-1.87 8.13-1.8 15.5 0.07 8.49 0.49 10.98 2.8 16.5 1.49 3.58 4.37 8.72 6.4 11.43 2.03 2.71 5.94 6.63 8.69 8.7 2.75 2.08 7.93 4.98 11.5 6.44 4.39 1.8 9.1 2.84 14.5 3.19 4.84 0.32 10.17 0.02 13.5-0.75 3.03-0.7 7.97-2.44 11-3.87 3.04-1.44 8.22-5.31 11.58-8.63 3.96-3.92 7.26-8.45 9.48-13.01 2.95-6.05 3.46-8.22 3.78-16 0.25-6.29-0.15-10.96-1.34-15.5-0.94-3.58-2.85-8.75-4.25-11.5-1.41-2.75-5.08-7.41-8.15-10.36-3.08-2.95-7.17-6.17-9.1-7.16-1.93-0.98-5.53-2.53-8-3.44-2.47-0.9-8.1-1.82-12.5-2.03-4.4-0.21-10.25-0.03-13 0.41zm550.5 0.68c-3.58 0.8-8.75 2.74-11.5 4.32-2.75 1.58-7.48 5.52-10.5 8.74-3.02 3.23-6.46 7.89-7.63 10.35-1.17 2.47-2.69 6.97-3.37 9.99-0.7 3.11-1.07 9.64-0.87 15.04 0.34 8.73 0.71 10.23 4.31 17.5 2.24 4.54 5.89 9.92 8.5 12.52 2.51 2.5 6.58 5.74 9.06 7.2 2.48 1.45 7.42 3.4 11 4.31 4.73 1.22 9.22 1.55 16.5 1.23 8.92-0.39 10.81-0.82 17.5-4.01 5.51-2.63 9.1-5.27 13.53-9.93 3.31-3.5 7.26-8.84 8.77-11.86 1.51-3.02 3.28-8.42 3.92-12 0.89-4.93 0.9-8.43 0.03-14.5-0.74-5.18-2.28-10.29-4.37-14.5-1.93-3.9-5.56-8.8-9.05-12.25-3.21-3.16-8.08-6.87-10.83-8.25-2.75-1.37-7.59-3.18-10.75-4.01-3.16-0.82-8.45-1.46-11.75-1.42-3.3 0.05-8.92 0.74-12.5 1.53zm-274 275.28c-1.37 0.45-4.75 1.96-7.5 3.35-2.75 1.39-6.95 4.5-9.33 6.9-2.38 2.4-5.53 6.85-7 9.87-2.4 4.94-2.67 6.62-2.67 16.5 0 9.77 0.28 11.55 2.5 15.88 1.38 2.68 4.98 7.2 8 10.03 3.38 3.16 7.43 5.83 10.5 6.9 2.75 0.97 7.48 2.02 10.5 2.34 3.02 0.33 8.2 0.04 11.5-0.63 3.3-0.67 8.25-2.48 11-4.03 2.75-1.54 7-4.98 9.45-7.65 2.45-2.66 5.37-6.86 6.5-9.34 1.64-3.6 2.04-6.49 2.01-14.5-0.03-8.17-0.44-10.87-2.25-14.75-1.21-2.61-4.57-7.27-7.46-10.36-2.89-3.09-7.5-6.77-10.25-8.18-4.08-2.1-6.66-2.63-14-2.86-4.95-0.16-10.12 0.08-11.5 0.53z"/>
		<path id="Path 3" class="s2" d="m495.5 202.45c-3.3 0.71-8.93 2.48-12.5 3.93-3.57 1.45-8.97 4.09-11.98 5.88-3.02 1.78-8.87 6.62-13.01 10.74-5.74 5.72-8.52 9.52-11.73 16-2.31 4.68-4.93 11.2-5.8 14.5-0.88 3.3-1.85 10.27-2.16 15.5-0.37 6.49-0.05 12.35 1.04 18.5 1.1 6.3 2.89 11.7 5.97 18 2.41 4.95 6.59 11.89 9.28 15.43 2.69 3.54 7.59 8.6 10.89 11.26 3.3 2.65 9.6 6.57 14 8.7 4.4 2.14 9.24 4.39 10.75 5l2.75 1.11c-0.99 164.69-1.45 212.73-1.67 213-0.22 0.27-3.65-1.24-7.62-3.36-3.96-2.12-13.51-7.25-21.21-11.38-7.7-4.14-16.7-8.99-20-10.77-3.3-1.78-12.75-6.95-21-11.49-8.25-4.54-23.55-12.86-34-18.49-10.45-5.63-21.7-11.71-25-13.51-3.3-1.8-10.27-5.62-15.5-8.49-5.23-2.87-14.23-7.71-20-10.76-5.77-3.05-11.05-6.15-11.73-6.89-0.92-1.02-1.17-7.69-1-26.26l0.23-24.9c8.52-4.55 13.64-8.42 16.87-11.53 3.23-3.12 7.64-8.37 9.8-11.67 2.16-3.3 4.85-8.93 5.98-12.5 1.44-4.57 2.07-9.32 2.11-16 0.03-5.23-0.52-11.98-1.22-15-0.7-3.02-2.55-8.2-4.11-11.5-1.56-3.3-5.03-8.7-7.71-12-2.68-3.3-7.99-8.12-11.79-10.71-3.81-2.59-10.53-5.92-14.93-7.4-6.49-2.19-9.79-2.69-17.5-2.68-7.44 0.02-11.23 0.58-17.5 2.61-4.4 1.42-10.7 4.33-14 6.46-3.3 2.13-8.47 6.56-11.5 9.84-3.03 3.28-6.94 8.87-8.71 12.42-1.77 3.55-3.9 9.95-4.75 14.21-0.85 4.26-1.53 10.11-1.53 13 0.01 2.89 0.69 8.06 1.5 11.5 0.82 3.44 2.87 9.29 4.57 13 2.35 5.16 5 8.64 11.25 14.78 4.91 4.82 10.36 9.09 13.67 10.7 3.02 1.48 6.74 3.16 8.25 3.73l2.75 1.04c0.03 62.62 0.09 63.62 2.26 67.92 1.23 2.42 3.81 5.64 5.74 7.15 1.93 1.5 8.9 5.63 15.5 9.18 6.6 3.54 20.55 11.17 31 16.94 10.45 5.77 32.05 17.59 48 26.28 15.95 8.68 40.02 21.87 53.5 29.3 13.48 7.44 31.02 17.15 39 21.59 7.98 4.43 15.96 9.54 17.75 11.35l3.25 3.29c0 90.67-0.23 117-0.5 117-0.27 0-6.69-3.22-14.25-7.16-7.56-3.94-22.75-11.96-33.75-17.83-11-5.87-27.73-14.69-37.17-19.59l-17.17-8.92c-0.96-7.75-2.21-12.92-3.39-16.5-1.19-3.58-3.82-8.98-5.85-12-2.03-3.02-7-8.59-11.05-12.36-4.05-3.78-9.62-8-12.37-9.4-2.75-1.39-7.48-3.39-10.5-4.44-3.02-1.05-9.32-2.18-14-2.51-5.2-0.37-11.02-0.12-15 0.65-3.57 0.68-8.75 2.19-11.5 3.34-2.75 1.16-7.7 3.77-11 5.82-3.3 2.04-7.82 5.67-10.05 8.06-2.23 2.39-5.92 7.49-8.2 11.34-2.28 3.85-5.13 10.6-6.33 15-1.85 6.82-2.1 9.7-1.64 19.5 0.37 8.19 1.15 13.23 2.69 17.5 1.19 3.3 4.5 9.33 7.35 13.41 2.85 4.07 7.51 9.47 10.35 12 2.85 2.52 8.25 6.25 12 8.28 3.76 2.03 9.53 4.4 12.83 5.26 3.3 0.86 10.05 1.56 15 1.56 4.95 0 11.7-0.69 15-1.54 3.3-0.84 8.48-2.74 11.5-4.22 3.02-1.48 8.09-4.84 11.25-7.47 3.16-2.63 7.44-7.04 9.5-9.79 2.06-2.76 4.2-5.01 4.75-5.01 0.55 0.01 2.57 1.08 4.5 2.38 1.93 1.3 7.77 4.76 13 7.68 5.23 2.91 13.1 7.3 17.5 9.75 4.4 2.45 10.48 5.8 13.5 7.46 3.02 1.66 8.43 4.6 12 6.54 3.57 1.93 13.48 7.44 22 12.24 8.52 4.79 21.13 11.57 28 15.07 9.76 4.97 13.71 6.45 18 6.77 3.49 0.26 7.33-0.2 10.5-1.26 2.75-0.92 15.58-7.36 28.5-14.3 12.92-6.95 26.42-14.3 30-16.34 3.58-2.04 10.1-5.63 14.5-7.97 4.4-2.34 17.11-9.14 28.25-15.13 11.14-5.98 20.81-10.88 21.5-10.89 0.69-0.01 4.85 3.5 9.25 7.79 6.04 5.9 10.21 8.93 17 12.36 7.18 3.64 10.82 4.81 18 5.82 7.52 1.05 10.4 1.03 17.5-0.18 5.62-0.95 11.21-2.75 16.5-5.33 6.1-2.98 9.91-5.81 16.06-11.92 4.43-4.41 9.44-10.5 11.13-13.52 1.69-3.02 4.09-8.87 5.33-13 1.95-6.53 2.18-9.05 1.76-19.5-0.28-6.96-1.16-14.1-2.09-17-0.89-2.75-3.32-7.82-5.4-11.27-2.09-3.45-5.84-8.4-8.35-11-2.5-2.6-7.23-6.51-10.5-8.69-3.27-2.18-9.31-5.28-13.44-6.9-5.97-2.34-9.54-3.03-17.5-3.4-5.5-0.25-12.7 0.05-16 0.67-3.3 0.63-9.71 2.93-14.25 5.11-6.16 2.97-10.12 5.82-15.62 11.23-4.78 4.7-8.47 9.44-10.5 13.5-1.72 3.44-3.78 9.06-4.58 12.5-0.8 3.44-1.7 7.94-2 10-0.53 3.63-0.96 3.98-13.8 11.13-7.29 4.07-19.77 10.88-27.75 15.15-7.98 4.27-24.74 13.32-37.25 20.12-12.51 6.79-23.2 12.12-23.75 11.85-0.65-0.32-1-19.91-0.99-55.75 0.01-30.39 0.32-57.05 0.7-59.25 0.47-2.73 1.84-5.11 4.31-7.5 2-1.92 13.24-8.67 25-15 11.75-6.33 25.22-13.56 29.93-16.08 4.7-2.51 22.28-11.92 39.05-20.91 16.77-8.98 35.45-19.09 41.5-22.46 6.05-3.37 16.17-8.77 22.5-12 6.33-3.23 18.7-9.88 27.5-14.78 8.8-4.9 17.46-10 19.25-11.34 1.79-1.34 4.49-4.57 6-7.18l2.75-4.75v-63.51c14.39-7.04 20.04-10.75 23.09-13.65 2.79-2.66 6.98-7.77 9.29-11.34 2.32-3.57 5.13-9.43 6.25-13 1.11-3.57 2.26-9.88 2.55-14 0.34-4.93-0.04-10.07-1.09-15-0.88-4.13-3.22-10.88-5.2-15-2.25-4.69-5.72-9.69-9.25-13.34-3.1-3.21-8.12-7.34-11.14-9.19-3.02-1.84-8.65-4.53-12.5-5.98-4.47-1.69-9.89-2.83-15-3.16-5.42-0.36-10.42-0.01-15.5 1.09-4.12 0.89-9.75 2.65-12.5 3.91-2.75 1.26-7.48 4.09-10.5 6.29-3.02 2.21-7.69 6.68-10.37 9.94-2.68 3.27-5.94 8.08-7.25 10.69-1.31 2.61-3.05 7.56-3.87 11-0.81 3.44-1.48 10.3-1.48 15.25 0 4.95 0.66 11.48 1.48 14.5 0.82 3.02 2.87 8.43 4.57 12 2.25 4.72 5.33 8.7 11.26 14.52 4.49 4.42 10.41 9.14 13.16 10.5l5 2.48v49.95c-9.3 5.63-23.92 13.69-38.5 21.55-14.58 7.85-31.45 17.07-37.5 20.49-6.05 3.41-18.87 10.38-28.5 15.48-9.62 5.1-17.95 9.61-18.5 10.01-0.55 0.4-6.4 3.56-13 7.02-6.6 3.46-12.45 6.61-13 7-0.55 0.38-5.05 2.86-10 5.49-4.95 2.63-10.91 5.85-13.25 7.15-2.34 1.3-4.81 2.19-5.5 1.99-0.99-0.3-1.32-22.85-1.59-107.25l-0.34-106.88c4.01-1.16 7.77-2.7 10.93-4.17 3.16-1.47 8.45-4.56 11.75-6.87 3.3-2.31 8.93-7.29 12.5-11.08 3.95-4.18 8.14-10.02 10.66-14.88 2.28-4.4 5.19-11.38 6.45-15.5 1.83-5.96 2.3-9.85 2.3-19 0-8.25-0.52-13.34-1.86-18-1.03-3.57-3.32-9.43-5.09-13-1.77-3.57-5.86-9.82-9.09-13.87-3.4-4.27-9.24-9.89-13.87-13.33-4.4-3.28-11.15-7.49-15-9.36-3.85-1.86-10.15-4.07-14-4.9-3.85-0.83-11.05-1.48-16-1.44-4.95 0.03-11.7 0.64-15 1.35z"/>
	</g>
</svg>