<svg version="1.2" xmlns="http://www.w3.org/2000/svg" viewBox="0 0 1024 1024" width="1024" height="1024">
	<style>
		.s0 { fill: #0c1e24 } 
		.s1 { opacity: 1;fill: #ddebf2 } 
		.s2 { fill: #537174 } 
		.s3 { fill: #34c4c3 } 
		.s4 { fill: #a9d6db } 
		.s5 { fill: #fafcfc } 
	</style>
	<g id="Background">
		<path id="Path 1" class="s0" d="m273 807l-91-51-19-21-10-25-1-381 4-20 10-19 18-17 287-163 31-10 25 1 25 9 275 155 19 12 11 11 11 19 5 23-1 379-9 24-23 25-86 47-38 21-169 96-21 6h-27l-25-8-168-95z"/>
		<path id="Path 4" class="s1" d="m470 335l20-5 29-1 28-13 13-13 11-22 1-37 4-4 6 10 4 17-2 26-9 21-17 19-14 9-13 4v35l-20-9h-18v-25zm-194 81l38-1v21l-38 2zm435 39v-40l38 1v24l-35-8zm-424 265h44l24-11 13-16 5-13-1-45 13 17 4 21 13 7-8 5-6 18v10l-9-4-17 19-23 9-26-1-19-9zm380 10l6-1 6-7 26-3 18-11 7-8 10-19v-45l8 9 7 19v24l-12 26-12 12-20 10-22 2z"/>
		<path id="Path 5" class="s2" d="m749 440v-24h1l-2 66z"/>
		<path id="Path 6" class="s3" d="m403 389l22 3 17 11 12 23v20l-6 14-10 11-18 9h-25l-13-6-11-10-9-19 3-29 17-20zm207 1l21 2 21 15 8 16 1 21-9 20-23 15h-25l-15-7-8-8-10-21 2-24 14-19zm-379 137l25 4 18 15 7 16 1 22-5 13-11 13-22 10-24-2-21-14-7-11-4-15 4-25 20-21zm552 0l21 2 20 13 11 21 1 17-9 22-19 15-28 3-12-3-13-9-13-24 3-30 13-17 12-7zm-279 276h15l13 5 10 10 5 10 1 18-6 15-18 13-17 2-19-7-11-14-2-23 6-14 8-8z"/>
		<path id="Path 7" class="s4" d="m501 202l10-2 11 2z"/>
		<path id="Path 8" class="s5" d="m470 335l-17-15-11-20-4-19 1-23 8-22 14-17 19-12 21-5h21l19 5 16 10 19 23-4 4-1 37-11 22-13 13-28 13-29 1zm-234 12l9-22 16-14 16-7h29l26 14 15 23 2 31-11 24-24 19-38 1-21-11-14-16-6-16v-23zm483-43l23-1 19 6 18 15 8 14 4 17-2 22-9 18-12 12-18 9h-1l-38-1-14-8-15-17-7-20v-20l4-14 9-14 18-14zm-405 132v28l3 3 175 93 1-188h18l20 9v180l12-4 165-90 3-3v-9l3-23 35 8-1 42-13 14-195 104-7 6-2 6v115l102-54 9-30 12-14 14-9 16-5h20l23 9 13 12v45l-10 19-7 8-18 11-26 3-6 7-6 1-14-9-8-10h-5l-115 63-19 3-118-64v-10l6-18 8-5 90 46v-118l-20-14-189-103-7-11v-42zm-27 284l-12-14-7-20 2-29 12-22 13-11 15-7 26-2 21 7 15 13 1 45-5 13-13 16-24 11z"/>
	</g>
</svg>