<svg version="1.2" xmlns="http://www.w3.org/2000/svg" viewBox="-52 -52 1128 1128" width="1024" height="1024">
	<style>
		.s0 { fill: #3daeae }
	</style>
	<g id="Background">
		<path id="Path 1" fill-rule="evenodd" class="s0" d="m513.5 100.41c9.28 0.3 14.04 0.99 21 3.06 4.95 1.47 12.15 4.35 16 6.4 3.85 2.05 17.58 9.81 30.5 17.25 12.92 7.43 28 16.03 33.5 19.11 5.5 3.08 18.55 10.42 29 16.31 10.45 5.89 29.8 16.78 43 24.2 13.2 7.42 32.77 18.44 43.5 24.49 10.73 6.06 27.15 15.31 36.5 20.56 9.35 5.26 19.7 11.11 23 13.02 3.3 1.9 15.67 8.84 27.5 15.42 11.83 6.59 23.72 13.61 26.42 15.62 2.71 2.01 7.58 6.58 10.83 10.15 3.46 3.8 7.68 10.03 10.18 15 2.35 4.68 5.13 12.1 6.17 16.5 1.83 7.71 1.9 14.89 1.9 198 0 183.3-0.07 190.25-1.89 197-1.04 3.85-3.09 9.7-4.56 13-1.46 3.3-4.19 8.25-6.05 11-1.87 2.75-5.89 7.63-8.95 10.85-3.05 3.22-7.57 7.33-10.05 9.14-2.48 1.81-9 5.74-14.5 8.74-5.5 2.99-14.95 8.07-21 11.28-6.05 3.21-12.58 6.81-14.5 7.99-1.92 1.19-6.65 3.88-10.5 5.98-3.85 2.1-12.85 7.06-20 11.03-7.15 3.97-18.85 10.5-26 14.51-7.15 4.01-17.27 9.64-22.5 12.5-5.23 2.86-11.3 6.22-13.5 7.46-2.2 1.24-13.67 7.77-25.5 14.5-11.83 6.73-29.83 16.88-40 22.57-10.17 5.68-26.38 14.8-36 20.27-9.63 5.47-24.92 14.2-34 19.39-9.08 5.2-19.65 10.51-23.5 11.82-3.85 1.31-10.15 2.84-14 3.41-3.85 0.56-9.92 1.03-13.5 1.05-3.57 0.02-10.55-0.68-15.5-1.54-4.95-0.87-11.25-2.54-14-3.72-2.75-1.18-20.52-10.97-39.5-21.76-18.98-10.8-44.63-25.28-57-32.19-12.38-6.9-24.75-13.81-27.5-15.34-2.75-1.53-9.05-5.11-14-7.95-4.95-2.85-21.38-12.16-36.5-20.7-15.13-8.53-30.2-17-33.5-18.81-3.3-1.82-13.43-7.45-22.5-12.51-9.07-5.07-27.53-15.17-41-22.46-13.47-7.28-27.38-15.55-30.9-18.37-3.52-2.83-8.94-8.51-12.04-12.64-3.1-4.12-7.04-10.42-8.74-14-1.71-3.58-3.94-9.2-4.96-12.5-1.79-5.76-1.86-13.67-1.86-391l2.32-8.5c1.27-4.68 4.13-11.87 6.34-16 2.21-4.12 5.48-9.3 7.26-11.5 1.79-2.2 6.14-6.31 9.67-9.13 3.52-2.82 13.16-8.85 21.41-13.4 8.25-4.55 21.75-12.2 30-17 8.25-4.8 21.75-12.54 30-17.21 8.25-4.66 22.87-12.89 32.5-18.28 9.62-5.39 23.57-13.27 31-17.52 7.43-4.24 20.48-11.66 29-16.47 8.52-4.82 20.45-11.55 26.5-14.97 6.05-3.41 13.7-7.69 17-9.51 3.3-1.82 11.18-6.22 17.5-9.79 6.32-3.57 15.1-8.62 19.5-11.22 4.4-2.61 15.43-9.04 24.5-14.29 9.07-5.25 20.1-10.98 24.5-12.75 4.4-1.76 10.7-3.82 14-4.57 3.92-0.89 10.16-1.23 18-0.98zm-15.5 101.6c-2.48 0.43-7.43 1.79-11 3.02-3.57 1.24-8.3 3.14-10.5 4.23-2.2 1.09-6.93 4.14-10.5 6.76-3.57 2.63-8.34 6.96-10.58 9.63-2.25 2.67-5.27 6.65-6.73 8.85-1.45 2.2-3.8 6.93-5.22 10.5-1.43 3.58-3.24 9.76-4.03 13.75-0.79 3.99-1.44 10.06-1.44 13.5 0.01 3.44 0.66 10.3 1.46 15.25 1.12 6.96 2.58 11.26 6.43 19 2.74 5.5 7.28 12.7 10.09 16 2.81 3.3 7.46 7.91 10.32 10.25 2.86 2.33 8.35 5.8 12.2 7.71 3.85 1.9 8.69 4.15 10.75 5l3.75 1.54c-0.98 164.69-1.45 212.73-1.68 213-0.22 0.27-2.97-0.87-6.11-2.55-3.14-1.67-16.51-8.83-29.71-15.9-13.2-7.07-32.32-17.45-42.5-23.06-10.18-5.62-22.55-12.37-27.5-15-4.95-2.64-18.68-10.06-30.5-16.5-11.82-6.44-25.32-13.75-30-16.24-4.68-2.49-9.05-5.15-9.73-5.89-0.92-1.01-1.17-7.7-1-26.3l0.23-24.94c7.75-3.91 13.59-8.65 18-13.08 5.22-5.25 9.02-10.12 10.93-14.04 1.61-3.3 3.52-8.25 4.24-11 0.72-2.75 1.31-9.5 1.31-15 0-5.67-0.64-12.38-1.48-15.5-0.81-3.02-2.59-7.75-3.95-10.5-1.37-2.75-4.63-7.57-7.27-10.71-2.63-3.14-6.8-7.24-9.28-9.11-2.48-1.86-6.86-4.58-9.75-6.04-2.89-1.45-7.84-3.32-11-4.15-3.16-0.82-9.57-1.5-14.25-1.5-4.68 0-11.2 0.69-14.5 1.53-3.3 0.85-8.86 2.99-12.37 4.76-3.5 1.77-9.29 5.92-12.88 9.22-3.61 3.33-8.21 8.89-10.31 12.5-2.1 3.58-4.59 9.43-5.56 13-1.14 4.27-1.74 10.11-1.73 17 0.01 8.81 0.44 11.71 2.68 18 1.46 4.13 4.35 9.93 6.42 12.9 2.06 2.97 6.34 7.8 9.5 10.75 3.35 3.12 9.31 7.12 14.28 9.6l8.53 4.25c-0.03 62.14 0.03 63.12 2.2 67.42 1.23 2.42 3.81 5.63 5.74 7.12 1.93 1.49 9.8 6.1 17.5 10.25 7.7 4.14 17.6 9.52 22 11.95 4.4 2.43 12.73 7.02 18.5 10.2 5.77 3.18 12.75 7.03 15.5 8.55 2.75 1.51 12.43 6.8 21.5 11.75 9.07 4.95 19.65 10.69 23.5 12.74 3.85 2.06 16 8.7 27 14.77 11 6.06 25.63 14.17 32.5 18.01 6.87 3.85 15.43 8.67 19 10.72 3.57 2.05 7.53 5.03 8.78 6.62l2.29 2.9c-0.06 104.16-0.33 116.5-1.32 116.52-0.69 0.01-1.7-0.39-2.25-0.89-0.55-0.5-5.95-3.49-12-6.65-6.05-3.16-22.7-11.93-37-19.49-14.3-7.55-31.4-16.54-38-19.98l-12-6.24c-2.67-13.38-4.78-19.97-6.41-23.27-1.63-3.3-5.58-8.9-8.77-12.44-3.2-3.53-8.52-8.4-11.82-10.8-3.3-2.41-9.6-5.74-14-7.41-5.64-2.14-10.51-3.2-16.5-3.6-5-0.33-11.18-0.06-15 0.66-3.57 0.67-10.66 3.21-15.75 5.65-6.64 3.19-10.89 6.06-15.07 10.19-3.21 3.16-7.7 8.9-9.98 12.75-2.55 4.3-4.98 10.28-6.31 15.5-1.79 7.07-2.07 10.35-1.63 19.5 0.36 7.65 1.14 12.67 2.59 16.5 1.14 3.02 3.95 8.42 6.25 12 2.3 3.58 6.93 9.21 10.29 12.51 4.2 4.13 8.77 7.32 14.61 10.19 4.68 2.3 11.43 4.72 15 5.39 3.92 0.74 10.27 1 16 0.66q9.5-0.56 15.5-2.84c3.3-1.26 7.8-3.29 10-4.52 2.2-1.23 6.97-5.09 10.59-8.57 3.63-3.47 7.54-7.67 8.7-9.32l2.11-3c5.12 2.95 10.87 6.27 16.1 9.27 5.23 3 23.45 13.1 40.5 22.46 17.05 9.35 33.48 18.47 36.5 20.27 3.02 1.81 11.13 6.1 18 9.54 10.1 5.06 13.65 6.35 18.5 6.72 4.61 0.34 7.28-0.07 11.5-1.75 3.02-1.2 14.27-6.94 25-12.75 10.73-5.81 21.52-11.67 24-13.03 2.48-1.36 14.63-7.98 27-14.7 12.38-6.72 27.23-14.75 33-17.85 5.77-3.1 11.51-5.64 12.75-5.66 1.48-0.01 3.71 1.68 6.5 4.95 2.34 2.73 6.73 6.84 9.75 9.14 3.02 2.3 8.42 5.53 12 7.16 3.58 1.64 10.1 3.6 14.5 4.36 6.01 1.05 9.86 1.15 15.5 0.41 4.13-0.54 8.85-1.38 10.5-1.87 1.65-0.49 6.15-2.4 10-4.24 5.26-2.51 9.12-5.47 15.5-11.89 5.97-6 9.44-10.47 11.66-15.04 1.74-3.58 3.87-9.2 4.73-12.5 0.9-3.42 1.57-10.09 1.57-15.5 0.01-5.9-0.68-12.15-1.8-16.5-0.99-3.85-3.12-9.46-4.73-12.47-1.61-3.01-5.7-8.41-9.08-12-3.38-3.59-9.23-8.37-13-10.63-3.77-2.25-9.77-5.18-13.35-6.5-5.58-2.06-8.28-2.4-19-2.4-10.28 0-13.65 0.39-19 2.21-3.58 1.22-9.88 4.4-14 7.07-4.12 2.67-9.52 7.11-12 9.86-2.48 2.75-5.93 7.66-7.68 10.93-1.74 3.26-3.86 8.85-4.69 12.43-0.84 3.58-1.75 8.08-2.03 10-0.44 3.06-1.35 4.01-7.3 7.62-3.74 2.27-9.95 5.82-13.8 7.89-3.85 2.07-11.27 6.11-16.5 8.98-5.23 2.87-14 7.61-19.5 10.52-5.5 2.91-17.76 9.5-27.25 14.64-9.49 5.14-17.7 9.35-18.25 9.35-0.65 0-1-19.58-0.99-56.75 0-34.42 0.39-58.23 1-60.5 0.62-2.37 2.29-4.76 4.51-6.5 1.93-1.51 10.82-6.73 19.75-11.6 8.92-4.86 19.61-10.66 23.73-12.88 4.13-2.22 12.67-6.84 19-10.26 6.33-3.43 15.55-8.39 20.5-11.02 4.95-2.63 11.25-6 14-7.49 2.75-1.49 9.05-4.87 14-7.51 4.95-2.64 16.2-8.72 25-13.5 8.8-4.78 26.58-14.35 39.5-21.28 12.92-6.92 25.41-13.97 27.75-15.65 2.34-1.68 5.49-5.2 7-7.81l2.75-4.75v-63.51c15.29-7.52 19.77-10.61 23.87-14.67 3.22-3.2 7.34-8.3 9.16-11.32 1.81-3.02 4.33-8.42 5.59-12 1.84-5.21 2.3-8.58 2.29-17-0.01-7.16-0.58-12.41-1.8-16.5-0.98-3.3-3.44-9.11-5.45-12.92-2.43-4.59-5.86-8.95-10.23-13-3.76-3.48-9.74-7.66-14-9.79-4.09-2.04-10.58-4.45-14.43-5.36-4.84-1.13-9.47-1.48-15-1.13-4.49 0.29-11.07 1.56-15 2.9-3.85 1.31-10.35 4.61-14.45 7.34-4.21 2.8-9.6 7.57-12.39 10.96-2.71 3.3-5.99 8.14-7.29 10.75-1.3 2.61-3.04 7.56-3.86 11-0.81 3.44-1.49 9.96-1.5 14.5 0 4.54 0.48 10.61 1.09 13.5 0.6 2.89 2.63 8.51 4.5 12.5 2.34 4.99 5.51 9.43 10.15 14.23 3.71 3.84 9.67 8.72 13.25 10.86l6.5 3.88c0.4 42.57 0.15 49.12-0.77 50.12-0.68 0.74-6.63 4.29-13.23 7.9-6.6 3.6-15.83 8.67-20.5 11.26-4.67 2.6-13 7.09-18.5 9.99-5.5 2.9-12.92 6.95-16.5 9-3.58 2.06-15.5 8.6-26.5 14.54-11 5.93-28.1 15.16-38 20.5-9.9 5.34-19.58 10.59-21.5 11.66-1.92 1.08-7.33 4.06-12 6.61-4.67 2.56-9.29 4.66-10.25 4.68-1.66 0.02-1.75-5.74-1.74-107.23l0.02-107.25c9.66-3.74 15.17-6.43 18.47-8.39 3.3-1.96 8.89-6.27 12.42-9.59 3.53-3.31 8.5-9.17 11.04-13.02 2.54-3.85 5.81-10.15 7.27-14 1.46-3.85 3.19-9.02 3.85-11.5 0.66-2.48 1.18-9.67 1.17-16-0.03-9.06-0.5-12.98-2.26-18.5-1.22-3.85-3.46-9.47-4.99-12.5-1.52-3.02-4.53-7.75-6.69-10.5-2.15-2.75-5.92-6.97-8.36-9.38-2.45-2.4-8.05-6.74-12.45-9.64-4.4-2.89-10.7-6.39-14-7.78-3.3-1.38-8.7-3.01-12-3.61-3.3-0.61-9.6-1.05-14-0.98-4.4 0.07-10.02 0.48-12.5 0.9zm-100.5 189.44c-3.3 0.71-8.48 2.55-11.5 4.08-3.02 1.53-7.86 5.19-10.75 8.13-2.89 2.94-6.61 8.15-8.27 11.59-1.77 3.67-3.45 9.34-4.08 13.75-0.79 5.53-0.76 9.08 0.11 13.5 0.64 3.3 2.9 9.38 5.02 13.5 2.23 4.35 5.76 9.28 8.41 11.75 2.51 2.34 8.05 5.91 12.31 7.93 6.52 3.1 9.1 3.75 16.25 4.15 6.73 0.37 9.96 0.03 15.5-1.63 3.85-1.15 9.7-3.83 13-5.95 3.3-2.12 7.48-5.64 9.28-7.81 1.81-2.16 4.63-6.64 6.26-9.94 1.64-3.3 3.48-8.47 4.1-11.5 0.84-4.14 0.82-7.48-0.09-13.5-0.79-5.22-2.31-10.09-4.37-14-1.74-3.3-5.42-8.25-8.19-11-2.77-2.75-7.5-6.46-10.51-8.24-3.02-1.78-8.63-3.91-12.48-4.73-3.85-0.82-8.57-1.47-10.5-1.43-1.93 0.03-6.2 0.64-9.5 1.35zm209.5 0.64c-2.48 0.49-7.42 2.35-11 4.14-3.58 1.8-8.98 5.74-12.02 8.77-3.12 3.1-6.79 8.12-8.42 11.5-2.47 5.14-2.95 7.5-3.32 16.5-0.37 9.04-0.12 11.33 1.78 16.5 1.21 3.3 4.07 8.42 6.34 11.38 2.28 2.96 5.72 6.64 7.64 8.17 1.92 1.53 6.65 4.28 10.5 6.11 6.65 3.17 7.55 3.34 18 3.29 10.41-0.04 11.4-0.23 18.37-3.5 5.33-2.5 8.93-5.11 13.04-9.45 3.12-3.3 6.98-8.7 8.58-12 2.38-4.91 2.99-7.63 3.32-15 0.31-6.8-0.04-10.47-1.42-15-1.01-3.3-2.97-8.02-4.36-10.48-1.39-2.47-4.55-6.53-7.03-9.02-2.48-2.5-7.42-5.99-11-7.77-3.58-1.77-8.98-3.68-12-4.24-3.02-0.55-7.08-0.96-9-0.89-1.92 0.07-5.52 0.51-8 0.99zm-385 137.75c-3.03 0.93-7.07 2.52-9 3.55-1.93 1.02-5.49 3.49-7.93 5.48-2.44 2-6.15 5.99-8.25 8.88-2.58 3.54-4.48 7.78-5.83 13-1.11 4.26-2 9.78-1.99 12.25 0.02 2.48 0.72 7.42 1.57 11 0.85 3.58 2.65 8.53 4 11 1.35 2.48 4.36 6.47 6.69 8.88 2.33 2.41 6.27 5.76 8.74 7.44 2.47 1.68 6.97 3.92 10 4.98 3.03 1.06 9.1 2.16 13.5 2.45 5.9 0.38 9.57 0.06 14-1.22 3.3-0.96 8.02-2.76 10.5-4.02 2.48-1.25 7-4.69 10.06-7.64 3.57-3.44 6.79-7.88 8.99-12.37 2.96-6.05 3.47-8.22 3.8-16 0.26-6.25-0.13-10.99-1.29-15.5-0.92-3.58-2.41-8.08-3.32-10-0.9-1.92-4.59-6.43-8.19-10.02-3.6-3.58-8.57-7.5-11.05-8.7-2.47-1.19-6.64-2.87-9.25-3.73-2.77-0.9-7.98-1.52-12.5-1.47-4.26 0.05-10.22 0.84-13.25 1.76zm553.75-0.26c-3.16 0.78-8.3 2.88-11.43 4.67-3.12 1.79-7.67 5.5-10.11 8.25-2.45 2.75-5.58 7.25-6.96 10-1.38 2.75-3.13 8.49-3.88 12.75-1.02 5.78-1.12 9.59-0.39 15 0.55 4.12 2.21 9.84 3.83 13.25 1.58 3.3 5.3 8.63 8.28 11.85 2.97 3.21 7.21 6.83 9.41 8.03 2.2 1.21 6.7 3.03 10 4.04 4.75 1.46 8.19 1.76 16.5 1.41 9.45-0.39 11.25-0.79 18-3.96 5.74-2.7 8.88-5.03 13.39-9.95 3.23-3.53 6.72-8.11 7.75-10.17 1.02-2.06 2.53-6.67 3.36-10.25 1.18-5.13 1.3-8.45 0.56-15.75-0.73-7.27-1.64-10.64-4.23-15.75-1.81-3.58-5.43-8.64-8.06-11.25-2.62-2.61-6.91-5.97-9.52-7.47-2.61-1.5-7.67-3.52-11.25-4.5-3.58-0.98-9.42-1.75-13-1.7-3.58 0.05-9.09 0.72-12.25 1.5zm-274.75 275.69c-1.93 0.71-5.52 2.45-8 3.87-2.48 1.42-6.21 4.56-8.29 6.97-2.09 2.41-4.77 6.19-5.97 8.39-1.87 3.44-2.18 5.62-2.21 15.5-0.03 10.51 0.2 11.93 2.6 16.5 1.44 2.75 4.59 6.77 7 8.94 2.4 2.17 6.85 5.06 9.87 6.42 3.29 1.48 8.11 2.66 12 2.94 4.22 0.3 8.43-0.09 12-1.11 3.02-0.87 7.72-2.84 10.43-4.38 2.72-1.55 6.68-4.83 8.8-7.31 2.13-2.48 4.79-6.98 5.92-10 1.64-4.42 1.96-7.17 1.63-14-0.29-5.92-1.08-9.94-2.6-13.25-1.2-2.61-4.32-7.05-6.93-9.86-2.61-2.82-7-6.27-9.75-7.69-4.04-2.07-6.72-2.63-14-2.9-5.68-0.2-10.29 0.15-12.5 0.97z"/>
	</g>
</svg>